@startuml
!include style.puml
skinparam arrowThickness 1.1
skinparam arrowColor MODEL_COLOR
skinparam classBackgroundColor MODEL_COLOR

' style.uml hides all class members, hence we show them using
' the following commands
show members
hide empty members
skinparam ClassAttributeFontColor #FFFFFF

package Model as ModelPackage <<Rectangle>>{
    Class Student {
        name
        phone
        major
        email
        tag
    }
    Class Stars
    class Comment {
        Integer: stars
        Optional(String): content
    }
}

' Create an invisible class in the diagram to draw the arrow representing
' the external user of the model
class HiddenOutside #FFFFFF
HiddenOutside ..> Student

Student *-right-> Stars
Stars *-right> "*" Comment


'Student -[hidden]up--> I
'UniqueStudentList -[hidden]right-> I

'ModelManager --> "~* filtered" Student
@enduml
